<svg width="64" height="65" viewBox="0 0 64 65" fill="none" xmlns="http://www.w3.org/2000/svg">
<path fill-rule="evenodd" clip-rule="evenodd" d="M29.6727 36.209L25.6727 40.209C25.4777 40.404 25.2217 40.502 24.9657 40.502C24.7097 40.502 24.4537 40.404 24.2587 40.209C23.8677 39.818 23.8677 39.186 24.2587 38.795L28.2587 34.795C28.6497 34.404 29.2817 34.404 29.6727 34.795C30.0637 35.186 30.0637 35.818 29.6727 36.209ZM34.7437 29.724C30.4927 25.473 23.5467 25.507 19.2587 29.795L7.25874 41.795C2.96974 46.084 2.93774 53.03 7.18774 57.28C9.26474 59.357 12.0397 60.502 15.0007 60.502C17.7827 60.502 20.5787 59.302 22.6727 57.209L34.6727 45.209C38.9617 40.92 38.9927 33.973 34.7437 29.724Z" fill="black"/>
<path fill-rule="evenodd" clip-rule="evenodd" d="M43 32.501C42.447 32.501 42 32.053 42 31.501C42.001 29.097 41.065 26.837 39.365 25.136C37.665 23.437 35.406 22.501 33.005 22.501H33.001C32.449 22.501 32.001 22.054 32.001 21.501C32.001 20.949 32.448 20.501 33.001 20.501H33.005C35.94 20.501 38.701 21.644 40.779 23.722C42.857 25.801 44.001 28.563 44 31.501C44 32.054 43.552 32.501 43 32.501Z" fill="black"/>
<path fill-rule="evenodd" clip-rule="evenodd" d="M51 32.501C50.447 32.501 50 32.054 50 31.501C50 26.959 48.231 22.69 45.022 19.48C41.812 16.269 37.545 14.502 33.005 14.502H33.001C32.449 14.502 32.001 14.055 32.001 13.502C32.001 12.95 32.448 12.502 33.001 12.502H33.005C38.079 12.502 42.849 14.478 46.435 18.065C50.023 21.653 52 26.425 52 31.501C52 32.054 51.553 32.501 51 32.501Z" fill="black"/>
<path fill-rule="evenodd" clip-rule="evenodd" d="M59 32.499C58.447 32.499 58 32.052 58 31.499C58 24.821 55.399 18.544 50.679 13.822C45.958 9.102 39.68 6.501 33.001 6.5C32.448 6.5 32.001 6.052 32.001 5.5C32.001 4.947 32.449 4.5 33.001 4.5C40.214 4.501 46.994 7.31 52.093 12.408C57.191 17.507 60 24.287 60 31.499C60 32.052 59.553 32.499 59 32.499Z" fill="black"/>
</svg>
